<?xml version="1.0" encoding="iso-8859-1"?>
<!-- Generator: Adobe Illustrator 19.0.0, SVG Export Plug-In . SVG Version: 6.00 Build 0)  -->
<svg xmlns="http://www.w3.org/2000/svg" xmlns:xlink="http://www.w3.org/1999/xlink" version="1.1" id="Capa_1" x="0px" y="0px" viewBox="0 0 512 512" style="enable-background:new 0 0 512 512;" xml:space="preserve" width="512px" height="512px">
<g>
	<g>
		<polygon points="68.284,40 165,40 165,0 0,0 0,165 40,165 40,68.284 177,205.284 205.284,177   " fill="#FFFFFF"/>
	</g>
</g>
<g>
	<g>
		<polygon points="205.284,335 177,306.716 40,443.716 40,347 0,347 0,512 165,512 165,472 68.284,472   " fill="#FFFFFF"/>
	</g>
</g>
<g>
	<g>
		<polygon points="347,0 347,40 443.716,40 306.716,177 335,205.284 472,68.284 472,165 512,165 512,0   " fill="#FFFFFF"/>
	</g>
</g>
<g>
	<g>
		<polygon points="472,347 472,443.716 335,306.716 306.716,335 443.716,472 347,472 347,512 512,512 512,347   " fill="#FFFFFF"/>
	</g>
</g>
<g>
</g>
<g>
</g>
<g>
</g>
<g>
</g>
<g>
</g>
<g>
</g>
<g>
</g>
<g>
</g>
<g>
</g>
<g>
</g>
<g>
</g>
<g>
</g>
<g>
</g>
<g>
</g>
<g>
</g>
</svg>
